<?xml version="1.0" encoding="utf-8"?>
<!-- Generator: Adobe Illustrator 16.0.0, SVG Export Plug-In . SVG Version: 6.00 Build 0)  -->
<!DOCTYPE svg PUBLIC "-//W3C//DTD SVG 1.1//EN" "http://www.w3.org/Graphics/SVG/1.1/DTD/svg11.dtd">
<svg version="1.1" id="Layer_1" xmlns="http://www.w3.org/2000/svg" xmlns:xlink="http://www.w3.org/1999/xlink" x="0px" y="0px"
	 width="18px" height="16px" viewBox="0 0 18 16" enable-background="new 0 0 18 16" xml:space="preserve">
<path fill="#FFFFFF" d="M9.519,0.161c-0.31-0.215-0.728-0.215-1.037,0L0,6.03l1.038,1.407L9,1.928l7.963,5.509L18,6.03L9.519,0.161z
	 M15.769,8.81l-6.25-4.324c-0.31-0.215-0.728-0.215-1.037,0L2.232,8.81C1.998,8.973,1.858,9.234,1.858,9.514v5.621
	c0,0.478,0.4,0.865,0.893,0.865h12.499c0.493,0,0.894-0.388,0.894-0.865V9.514C16.143,9.234,16.003,8.973,15.769,8.81 M3.644,14.271
	V9.959L9,6.252l5.356,3.707v4.312H3.644z"/>
</svg>
