<svg id="kakao_map_ico" xmlns="http://www.w3.org/2000/svg" xmlns:xlink="http://www.w3.org/1999/xlink" width="60" height="60" viewBox="0 0 60 60">
  <defs>
    <clipPath id="clip-path">
      <circle id="Ellipse_3_copy" data-name="Ellipse 3 copy" cx="30" cy="30" r="30" fill="#f7df48"/>
    </clipPath>
    <clipPath id="clip-path-2">
      <rect id="사각형_2" data-name="사각형 2" width="60" height="60" transform="translate(0 0)" fill="none"/>
    </clipPath>
  </defs>
  <g id="Ellipse_3_copy-2" data-name="Ellipse 3 copy">
    <circle id="Ellipse_3_copy-3" data-name="Ellipse 3 copy" cx="30" cy="30" r="30" fill="#f7df48"/>
    <g id="Clip" clip-path="url(#clip-path)">
      <g id="Vector_Smart_Object" data-name="Vector Smart Object">
        <rect id="사각형_1" data-name="사각형 1" width="60" height="60" transform="translate(0 0)" fill="#f7df49"/>
        <g id="그룹_2" data-name="그룹 2">
          <g id="그룹_1" data-name="그룹 1" clip-path="url(#clip-path-2)">
            <path id="패스_1" data-name="패스 1" d="M39.54,18.109A12.809,12.809,0,0,0,26.153,13.28a14.566,14.566,0,0,0-2.671.977,12.447,12.447,0,0,0-2.268,1.416,12.158,12.158,0,0,0-1.866,1.833,13.541,13.541,0,0,0-1.48,2.23,10.167,10.167,0,0,0-1.252,3.531,19.884,19.884,0,0,0-.139,2.929,12.034,12.034,0,0,0,.085,1.3,8.884,8.884,0,0,0,.19,1.163,7.893,7.893,0,0,0,.4,1.129,19.192,19.192,0,0,0,1.186,2.239,27.075,27.075,0,0,0,2.068,2.922q.521.648,1.069,1.273c.777.89,1.534,1.8,2.22,2.761.346.485.674.983.975,1.5s.518,1.047.8,1.551A31.672,31.672,0,0,1,27.131,45.4q.364.867.676,1.755a6.3,6.3,0,0,0,.47,1.181,1.054,1.054,0,0,0,.973.529c.9-.019,1.047-.828,1.291-1.509A33.274,33.274,0,0,1,37.116,36a25.653,25.653,0,0,0,3-4.023,12.024,12.024,0,0,0-.58-13.869M29.259,30.024a4.242,4.242,0,0,1-4.326-4.241,4.279,4.279,0,0,1,8.558-.093,4.241,4.241,0,0,1-4.232,4.334" fill="#1f7ff6"/>
          </g>
        </g>
      </g>
    </g>
  </g>
</svg>
