<svg xmlns="http://www.w3.org/2000/svg" width="15" height="16" viewBox="0 0 15 16">
  <path id="share_ic" d="M8.779,12.018,5.464,10.186A3.13,3.13,0,0,1,3.158,11.2a3.2,3.2,0,0,1,0-6.4A3.129,3.129,0,0,1,5.464,5.814L8.779,3.982A3.268,3.268,0,0,1,8.684,3.2,3.158,3.158,0,1,1,15,3.2a3.179,3.179,0,0,1-3.158,3.2A3.127,3.127,0,0,1,9.536,5.386L6.221,7.218a3.272,3.272,0,0,1,0,1.563l3.315,1.833A3.13,3.13,0,0,1,11.842,9.6a3.2,3.2,0,1,1-3.158,3.2,3.263,3.263,0,0,1,.095-.782M3.158,9.6A1.6,1.6,0,1,0,1.579,8,1.589,1.589,0,0,0,3.158,9.6m8.684-4.8a1.6,1.6,0,1,0-1.579-1.6,1.589,1.589,0,0,0,1.579,1.6m0,9.6a1.6,1.6,0,1,0-1.579-1.6,1.589,1.589,0,0,0,1.579,1.6" fill="#fff"/>
</svg>
