<svg id="tel_ic" xmlns="http://www.w3.org/2000/svg" xmlns:xlink="http://www.w3.org/1999/xlink" width="18" height="18" viewBox="0 0 18 18">
  <defs>
    <clipPath id="clip-path">
      <rect id="사각형_1" data-name="사각형 1" width="18" height="18" fill="none"/>
    </clipPath>
  </defs>
  <g id="그룹_1" data-name="그룹 1" clip-path="url(#clip-path)">
    <path id="패스_1" data-name="패스 1" d="M6.365,7.682a10.553,10.553,0,0,0,3.953,3.952L11.2,10.4a1,1,0,0,1,1.293-.3,11.442,11.442,0,0,0,4.584,1.364,1,1,0,0,1,.921,1v4.463a1,1,0,0,1-.9.995A15.809,15.809,0,0,1,15.5,18,15.509,15.509,0,0,1,.082.9,1,1,0,0,1,1.076,0H5.539a1,1,0,0,1,1,.921A11.406,11.406,0,0,0,7.9,5.5,1,1,0,0,1,7.6,6.8ZM3.844,7.025l1.9-1.357A13.4,13.4,0,0,1,4.647,2H2.009C2,2.166,2,2.333,2,2.5A13.5,13.5,0,0,0,15.5,16c.167,0,.333,0,.5-.009V13.352a13.4,13.4,0,0,1-3.668-1.1l-1.357,1.9a12.6,12.6,0,0,1-1.588-.75l-.058-.033a12.551,12.551,0,0,1-4.7-4.7l-.033-.059a12.313,12.313,0,0,1-.75-1.587"/>
  </g>
</svg>
