<?xml version="1.0" encoding="utf-8"?>
<!-- Generator: Adobe Illustrator 16.0.0, SVG Export Plug-In . SVG Version: 6.00 Build 0)  -->
<!DOCTYPE svg PUBLIC "-//W3C//DTD SVG 1.1//EN" "http://www.w3.org/Graphics/SVG/1.1/DTD/svg11.dtd">
<svg version="1.1" id="Layer_1" xmlns="http://www.w3.org/2000/svg" xmlns:xlink="http://www.w3.org/1999/xlink" x="0px" y="0px"
	 width="85px" height="85px" viewBox="0 0 85 85" enable-background="new 0 0 85 85" xml:space="preserve">
<g>
	<path fill="#FFFFFF" d="M30,55c0,16.569-13.431,30-30,30h60C43.431,85,30,71.569,30,55"/>
	<path fill="#FFFFFF" d="M55,30c16.569,0,30,13.431,30,30V0C85,16.569,71.569,30,55,30"/>
	<g id="Ellipse_5_copy">
		<g>
			<path fill="#FFFFFF" d="M84.993,43.508c-5.361-8.161-14.598-13.55-25.092-13.55c-16.568,0-30,13.431-30,30
				c0,10.451,5.345,19.654,13.45,25.025L76.426,85L85,84.958v-8.561L84.993,43.508z"/>
		</g>
	</g>
</g>
</svg>
