<svg width="51" height="51" viewBox="0 0 51 51" fill="none" xmlns="http://www.w3.org/2000/svg">
<rect x="3.27295" y="4.02454" width="43.6238" height="43.6238" rx="21.8119" fill="#666666"/>
<path d="M25.085 50.8364C11.2775 50.8364 0.0849609 39.6439 0.0849609 25.8364C0.0849609 12.0289 11.2775 0.836426 25.085 0.836426C38.8925 0.836426 50.085 12.0289 50.085 25.8364C50.085 39.6439 38.8925 50.8364 25.085 50.8364ZM21.64 16.8739C21.4895 16.7735 21.3146 16.7158 21.134 16.707C20.9533 16.6981 20.7736 16.7384 20.6141 16.8236C20.4545 16.9087 20.321 17.0356 20.2279 17.1906C20.1347 17.3457 20.0853 17.5231 20.085 17.7039V33.9689C20.0853 34.1498 20.1347 34.3272 20.2279 34.4822C20.321 34.6372 20.4545 34.7641 20.6141 34.8493C20.7736 34.9344 20.9533 34.9747 21.134 34.9659C21.3146 34.957 21.4895 34.8993 21.64 34.7989L33.8375 26.6689C33.9746 26.5776 34.0871 26.4539 34.1649 26.3086C34.2427 26.1634 34.2834 26.0012 34.2834 25.8364C34.2834 25.6717 34.2427 25.5094 34.1649 25.3642C34.0871 25.219 33.9746 25.0952 33.8375 25.0039L21.6375 16.8739H21.64Z" fill="#F8F8F8"/>
</svg>
